# Blender v2.81 (sub 16) OBJ File: ''
# www.blender.org
mtllib bevelcube.mtl
o cube
v -0.500000 -0.337487 0.432685
v -0.500000 -0.432685 0.337487
v -0.432685 -0.500000 0.337487
v -0.337487 -0.500000 0.432685
v -0.432685 -0.432685 0.500000
v 0.432685 -0.500000 0.432685
v 0.500000 -0.432685 0.432685
v 0.432685 -0.337487 0.500000
v 0.337487 -0.432685 0.500000
v -0.500000 0.432685 0.432685
v -0.432685 0.337487 0.500000
v -0.337487 0.432685 0.500000
v -0.432685 0.500000 0.432685
v 0.337487 0.500000 0.432685
v 0.432685 0.432685 0.500000
v 0.500000 0.337487 0.432685
v 0.500000 0.432685 0.337487
v 0.432685 0.500000 0.337487
v -0.500000 0.432685 -0.337487
v -0.432685 0.500000 -0.337487
v -0.337487 0.500000 -0.432685
v -0.432685 0.432685 -0.500000
v -0.500000 0.337487 -0.432685
v 0.337487 0.432685 -0.500000
v 0.432685 0.500000 -0.432685
v 0.500000 0.432685 -0.432685
v 0.432685 0.337487 -0.500000
v -0.500000 -0.432685 -0.432685
v -0.432685 -0.337487 -0.500000
v -0.337487 -0.432685 -0.500000
v -0.432685 -0.500000 -0.432685
v 0.337487 -0.500000 -0.432685
v 0.432685 -0.432685 -0.500000
v 0.500000 -0.337487 -0.432685
v 0.500000 -0.432685 -0.337487
v 0.432685 -0.500000 -0.337487
vt 0.067315 0.067315
vt 0.837487 0.067315
vt 0.067315 0.837487
vt 0.067315 0.067315
vt 0.837487 0.067315
vt 0.067315 0.837487
vt 0.162513 0.932685
vt 0.932685 0.162513
vt 0.932685 0.932685
vt 0.162513 0.932685
vt 0.932685 0.162513
vt 0.932685 0.932685
vt 0.837487 0.067315
vt 0.067315 0.837487
vt 0.067315 0.067315
vt 0.162513 0.932685
vt 0.932685 0.162513
vt 0.932685 0.932685
vt 0.067315 0.067315
vt 0.837487 0.067315
vt 0.067315 0.837487
vt 0.067315 0.067315
vt 0.837487 0.067315
vt 0.067315 0.837487
vt 0.932685 0.932685
vt 0.162513 0.932685
vt 0.932685 0.162513
vt 0.162513 0.932685
vt 0.932685 0.162513
vt 0.932685 0.932685
vt 0.067315 0.067315
vt 0.837487 0.067315
vt 0.067315 0.837487
vt 0.932685 0.162513
vt 0.885086 0.114914
vt 0.918743 0.081257
vt 0.966342 0.033658
vt 1.000000 0.067315
vt 1.000000 0.932685
vt 0.932685 1.000000
vt 0.837487 1.000000
vt 0.932685 0.932685
vt 1.000000 0.837487
vt 1.000000 0.932685
vt 0.932685 1.000000
vt 0.932685 0.000000
vt 0.966342 0.033658
vt 0.918743 0.081257
vt 0.885086 0.114914
vt 0.162513 0.932685
vt 0.162513 1.000000
vt 0.067315 1.000000
vt 0.033658 0.966342
vt 0.114914 0.885086
vt 0.067315 1.000000
vt 0.033658 0.966342
vt 0.114914 0.885086
vt 0.000000 0.162513
vt 0.000000 0.067315
vt 0.067315 0.000000
vt 0.932685 0.000000
vt 0.966342 0.033658
vt 0.918743 0.081257
vt 0.885086 0.114914
vt 0.000000 0.932685
vt 0.000000 0.162513
vt 0.067315 1.000000
vt 0.837487 1.000000
vt 0.067315 1.000000
vt 0.000000 0.932685
vt 0.000000 0.162513
vt 0.000000 0.837487
vt 0.000000 0.067315
vt 0.837487 1.000000
vt 0.067315 1.000000
vt 0.932685 1.000000
vt 0.162513 1.000000
vt 1.000000 0.067315
vt 1.000000 0.837487
vt 0.162513 0.000000
vt 0.932685 0.000000
vt 1.000000 0.067315
vt 1.000000 0.837487
vt 0.837487 0.000000
vt 1.000000 0.162513
vn 0.0000 -1.0000 -0.0000
vn 0.1715 -0.9031 -0.3937
vn -0.4535 -0.8813 0.1331
vn 1.0000 0.0000 0.0000
vn 0.8813 -0.4535 -0.1331
vn 0.9031 0.1715 0.3937
vn -0.1715 0.9031 -0.3937
vn 0.4535 0.8813 0.1331
vn 0.0000 1.0000 0.0000
vn 0.8813 0.4535 0.1331
vn 0.9031 -0.1715 -0.3937
vn -0.0892 -0.3812 -0.9202
vn 0.3812 0.0892 -0.9202
vn 0.0000 0.0000 -1.0000
vn -0.1715 -0.9031 0.3937
vn 0.4535 -0.8813 -0.1331
vn -1.0000 0.0000 0.0000
vn -0.8813 -0.4535 0.1331
vn -0.9031 0.1715 -0.3937
vn 0.1715 0.9031 0.3937
vn -0.4535 0.8813 -0.1331
vn 0.0892 0.3812 -0.9202
vn -0.3812 -0.0892 -0.9202
vn -0.0892 0.3812 0.9202
vn 0.3812 -0.0892 0.9202
vn 0.0000 0.0000 1.0000
vn 0.0892 -0.3812 0.9202
vn -0.3812 0.0892 0.9202
vn -0.9031 -0.1715 0.3937
vn -0.5857 -0.5857 0.5602
vn 0.4913 -0.6495 0.5804
vn 0.6495 -0.4913 0.5804
vn -0.6495 0.4913 0.5804
vn -0.4913 0.6495 0.5804
vn 0.5857 0.5857 0.5602
vn -0.8813 0.4535 -0.1331
vn -0.5857 0.5857 -0.5602
vn 0.4913 0.6495 -0.5804
vn 0.6495 0.4913 -0.5804
vn -0.6495 -0.4913 -0.5804
vn -0.4913 -0.6495 -0.5804
vn 0.5857 -0.5857 -0.5602
usemtl cube
s 1
f 31/1/1 32/2/2 3/3/3
f 7/4/4 35/5/5 16/6/6
f 21/7/7 18/8/8 25/9/9
f 17/10/10 34/11/11 26/12/4
f 30/13/12 27/14/13 33/15/14
f 4/16/15 36/17/16 6/18/1
f 28/19/17 2/20/18 23/21/19
f 13/22/9 14/23/20 20/24/21
f 22/25/14 24/26/22 29/27/23
f 12/28/24 8/29/25 15/30/26
f 5/31/26 9/32/27 11/33/28
f 1/34/29 2/35/18 3/36/3 4/37/15 5/38/30
f 6/18/31 7/39/32 8/40/25 9/41/27
f 10/42/33 11/43/28 12/44/24 13/45/34
f 14/23/20 15/46/35 16/47/6 17/48/10 18/49/8
f 19/50/36 20/51/21 21/52/7 22/53/37 23/54/19
f 24/26/22 25/55/38 26/56/39 27/57/13
f 28/19/40 29/58/23 30/59/12 31/60/41
f 32/2/2 33/61/42 34/62/11 35/63/5 36/64/16
f 5/31/30 11/33/28 10/65/33 1/66/29
f 4/16/15 6/18/31 9/41/27 5/67/30
f 8/29/25 12/28/24 11/33/28 9/32/27
f 12/28/24 15/30/35 14/68/20 13/69/34
f 7/4/32 16/6/6 15/70/35 8/71/25
f 13/22/34 20/24/21 19/72/36 10/73/33
f 18/8/8 21/7/7 20/24/21 14/23/20
f 21/7/7 25/9/38 24/74/22 22/75/37
f 17/10/10 26/12/39 25/76/38 18/77/8
f 22/25/37 29/27/23 28/78/40 23/79/19
f 27/14/13 30/13/12 29/27/23 24/26/22
f 30/13/12 33/15/42 32/80/2 31/81/41
f 26/12/39 34/11/11 33/82/42 27/83/13
f 2/20/18 28/19/40 31/60/41 3/84/3
f 3/3/3 32/2/2 36/17/16 4/16/15
f 6/18/31 36/17/16 35/85/5 7/39/32
f 16/6/6 35/5/5 34/11/11 17/10/10
f 1/34/29 19/50/36 23/21/19 2/20/18
f 19/50/36 1/34/29 10/42/17
